<svg viewBox="0 -100 512 512" xmlns="http://www.w3.org/2000/svg">
    <path d="m466.61 328.77-28.836-140.07c-3.4297-13.094-11.145-24.656-21.918-32.852l-12.051-9.1719c-8.3516-6.3555-14.91-14.77-19.031-24.422l-20.375-47.742c-3.2031-7.5-7.8828-14.273-13.762-19.918l-8.3906-8.0547c-3.4609-3.3203-6.5117-7.043-9.0938-11.082-19.82-31.027-62.508-37.336-90.461-13.379l-14.457 12.391c-5.4531 4.6758-11.699 8.3438-18.438 10.832l-23.852 8.8086c-15.629 5.7695-28.188 17.723-34.727 33.043l-13.801 32.328c-4.8633 11.391-13.102 21.02-23.605 27.586l-13.891 8.6797c-13.098 8.1875-22.574 21.07-26.492 36.012l-28.035 137.01c-10.059 38.387 18.906 75.918 58.59 75.918h304.04c39.688 0 68.648-37.531 58.59-75.918z"
          fill="#48535E"/>
    <path d="m75.391 338.77 28.039-137.01c3.9141-14.941 13.391-27.824 26.488-36.012l13.891-8.6797c10.504-6.5664 18.742-16.195 23.605-27.586l13.801-32.328c6.5391-15.32 19.098-27.273 34.727-33.043l23.852-8.8047c6.7422-2.4883 12.984-6.1562 18.438-10.836l14.457-12.391c12.492-10.707 27.926-15.352 42.945-14.465-21.777-14.453-51.637-13.797-72.945 4.4648l-14.457 12.391c-5.4531 4.6758-11.699 8.3477-18.438 10.832l-23.852 8.8086c-15.629 5.7695-28.188 17.723-34.727 33.043l-13.801 32.328c-4.8633 11.391-13.102 21.02-23.605 27.586l-13.891 8.6797c-13.098 8.1875-22.574 21.07-26.492 36.012l-28.035 137.01c-9.7578 37.238 17.207 73.668 55.059 75.816-20.566-13.723-31.934-39.566-25.059-65.816z"
          fill="#343D46"/>

    <path d="m384.58 284.04c-3.6484-13.156-13.527-53.684-26.43-58.156l-9.9844-3.4609c-9.3164-3.2305-17.18-9.668-22.188-18.16-7.4688-12.676-21.082-20.457-35.793-20.457h-68.367c-14.711 0-28.328 7.7812-35.797 20.457-5.0039 8.4922-12.871 14.934-22.188 18.16l-9.9844 3.4609c-12.898 4.4727-22.781 45-26.43 58.156l-13.98 50.418 79.535 70.23h107.14l98.445-70.23z"
          fill="#1F2429"/>
    <path d="m157.42 284.04c3.6484-13.156 13.527-53.684 26.426-58.156l9.9883-3.4609c9.3164-3.2305 17.18-9.668 22.184-18.164 7.4688-12.672 21.086-20.453 35.797-20.453h-30c-14.711 0-28.328 7.7812-35.797 20.453-5.0039 8.4961-12.871 14.934-22.188 18.164l-9.9844 3.4609c-12.898 4.4727-22.781 45-26.43 58.156l-13.98 50.418 27.48 24.262z"
          fill="#0d0d0d"/>

    <path d="m487.25 353.61c-3.3711-9.9688-10.492-18.234-19.852-23.043l-38.996-20.023c-8.4219-4.3281-18.094-5.5625-27.332-3.4922l-28.848 6.4648c-5.9727 1.3398-11.566 4.0195-16.355 7.832l-31.203 24.848c-6.5938 5.25-11.387 12.43-13.703 20.535l-10.844 37.961h204.39z"
          fill="#595F65"/>
    <path d="m354.66 346.2 31.203-24.848c4.7891-3.8125 10.383-6.4922 16.355-7.8281l21.82-4.8906c-7.3125-2.7266-15.293-3.2969-22.973-1.5781l-28.848 6.4648c-5.9727 1.3398-11.566 4.0195-16.355 7.832l-31.203 24.848c-6.5938 5.25-11.387 12.43-13.703 20.535l-10.844 37.961h30l10.848-37.961c2.3164-8.1055 7.1055-15.285 13.699-20.535z"
          fill="#1F252C"/>

    <path d="m174.78 369.11c-4.6055-9.0117-11.402-16.719-19.77-22.414l-10.301-7.0117c-8.5039-5.7891-18.344-9.3086-28.586-10.227l-22.109-1.9805c-14.566-1.3047-29.113 2.7266-40.93 11.34l-17.523 12.77c-11.172 8.1406-19.207 19.871-22.77 33.227l-5.3008 19.875h185.48z"
          fill="#595F65"/>
    <path d="m65.562 351.59 17.523-12.77c6.9258-5.0469 14.789-8.5078 23.039-10.254l-12.109-1.0859c-14.566-1.3047-29.113 2.7266-40.93 11.34l-17.523 12.77c-11.172 8.1406-19.207 19.871-22.77 33.227l-5.3008 19.875h30l5.3008-19.875c3.5625-13.355 11.602-25.086 22.77-33.227z"
          fill="#1F252C"/>

    <path fill="#0d0d0d"
          d="m190.26 118.92v10.543c0 4.1406 3.3594 7.5 7.5 7.5 4.1406 0 7.5-3.3594 7.5-7.5v-10.543c0-4.1406-3.3594-7.5-7.5-7.5-4.1406 0-7.5 3.3594-7.5 7.5z"/>
    <path fill="#0d0d0d"
          d="m314.25 111.42c-4.1445 0-7.5 3.3594-7.5 7.5v10.543c0 4.1406 3.3555 7.5 7.5 7.5 4.1406 0 7.5-3.3594 7.5-7.5v-10.543c0-4.1406-3.3594-7.5-7.5-7.5z"/>
    <path fill="#0d0d0d"
          d="m337.09 51.918c7.9258 8.0312 15.867 14.91 20.406 25.543l20.379 47.742c4.6211 10.828 12.016 20.32 21.387 27.449 13.746 10.457 26.539 20.223 31.203 37.766l4.9648 24.105c0.83203 4.0586 4.8047 6.668 8.8555 5.832 4.0586-0.83203 6.6719-4.8008 5.8359-8.8555l-5.0039-24.309c-0.027344-0.12891-0.058594-0.26172-0.09375-0.38672-5.5039-20.77-20.281-33.613-36.68-46.09-7.3047-5.5586-13.07-12.961-16.676-21.402 0 0-20.371-47.727-20.375-47.742-5.2969-12.402-14.328-21.289-23.855-30.434-3.0273-2.9102-5.7109-6.1758-7.9688-9.7148-10.617-16.617-27.895-27.801-47.402-30.688-19.508-2.8867-39.285 2.8203-54.258 15.656 0 0-14.453 12.387-14.457 12.391-11.078 9.4961-26.547 13.328-40.008 18.297-17.484 6.457-31.711 19.992-39.027 37.137l-13.797 32.328c-4.2812 10.031-11.434 18.387-20.684 24.168l-13.891 8.6836c-14.781 9.2383-25.355 23.609-29.77 40.469-0.035156 0.12891-0.066406 0.26562-0.09375 0.39844l-27.996 136.81c-1.2734 4.918-1.9883 9.9375-2.1523 14.961l-4.7891 3.4922c-12.516 9.1211-21.605 22.387-25.598 37.352 0 0-5.2852 19.828-5.2969 19.875-1.2539 4.6992 2.3984 9.4336 7.2461 9.4336h497.01c5.0547 0 8.7266-5.1094 7.1055-9.8984l-17.258-51.082c-3.6758-10.883-11-19.922-20.773-25.773l-17.535-85.152c-0.83203-4.0586-4.8008-6.668-8.8555-5.8359-4.0586 0.83594-6.668 4.8047-5.8359 8.8594l15.07 73.191s-24.594-12.629-24.605-12.637c-9.9609-5.1094-21.465-6.5781-32.387-4.1289l-2.5586 0.57422s-5.707-20.621-6.0898-22.039c-8.7617-32.453-17.246-54.988-30.176-59.469-11.273-3.9062-21.75-7.457-28.164-18.344-8.7773-14.895-24.969-24.148-42.258-24.148h-68.367c-17.289 0-33.48 9.2539-42.258 24.148-6.418 10.891-17 14.473-28.168 18.344-10.027 3.4766-17.957 17.355-26.523 46.406-1.168 3.9766 1.1016 8.1445 5.0742 9.3164 3.9727 1.1719 8.1445-1.1016 9.3164-5.0742 9.7539-33.09 16.328-36.227 17.047-36.477 14.766-5.1172 27.867-10.801 36.18-24.902 6.0898-10.34 17.332-16.762 29.332-16.762h68.367c12 0 23.238 6.4219 29.332 16.762 8.293 14.074 21.523 19.824 36.176 24.902 0.17969 0.0625 4.4727 1.7188 11 18.41 4.1836 10.715 10.352 33.555 10.66 34.664l4.8633 17.543-11.633 2.6094c-7.043 1.5781-13.746 4.7852-19.387 9.2812l-31.203 24.848c-7.8633 6.2617-13.48 14.68-16.242 24.344l-9.2891 32.52h-96.902l-10.57-20.676-5.5312-10.816c-7.4141-14.512-19.375-23.262-32.512-32.199-7.4023-5.0391-15.812-8.5703-24.578-10.395l6.9648-25.109c1.1055-3.9883-1.2305-8.1211-5.2227-9.2305-3.9922-1.1055-8.125 1.2305-9.2344 5.2266l-7.5781 27.328c-7.6641-0.6875-15.371-1.7461-23.082-1.5312-11.777 0.41406-23.32 3.9219-33.336 10.137-0.027343 0.015625-0.054687 0.03125-0.078124 0.046875l27.93-136.5c3.4766-13.062 11.691-24.191 23.16-31.359l13.891-8.6836c11.863-7.4141 21.039-18.133 26.527-31l13.801-32.328c5.7031-13.367 16.793-23.918 30.426-28.953 15.461-5.707 31.805-10.035 44.574-20.98l14.457-12.391c11.672-10.004 27.094-14.453 42.301-12.203 15.211 2.2461 28.68 10.969 36.957 23.926 2.9062 4.5469 6.4766 8.582 10.262 12.418zm-319.83 345.27 2.7852-10.441c3.1094-11.656 10.188-21.988 19.938-29.094l17.523-12.773c10.277-7.4883 23.176-11.062 35.844-9.9297l22.109 1.9805c8.9062 0.80078 17.641 3.9219 25.031 8.957 10.996 7.4844 21.379 14.445 27.617 26.641l12.609 24.664h-163.46zm312.08-45.129s31.203-24.844 31.207-24.848c3.8984-3.1016 8.4805-5.2383 13.32-6.375l28.848-6.4648c7.4531-1.6719 15.477-0.64844 22.27 2.8398l38.992 20.023c7.6719 3.9375 13.414 10.605 16.172 18.773l13.914 41.18h-184s8.1133-28.395 8.1133-28.398c1.8789-6.5664 5.8203-12.473 11.16-16.73z"/>

    <path d="m220.27 154.37c20.582-19.176 43.103-28.194 72.726 0" fill="none" stroke="#0d0d0d" stroke-linecap="round"
          stroke-width="12"/>
</svg>
