<svg xmlns="http://www.w3.org/2000/svg" viewBox="0.586 194.09 498.965 305.486">
    <path fill="#6f6f6f" d="M 469.339 205.817 L 469.339 260.804 C 469.339 262.992 462.908 264.713 454.721 264.713 L 44.441 264.713 C 36.254 264.713 29.823 262.992 29.823 260.804 L 29.823 205.817 C 29.823 199.329 49.409 194.09 73.676 194.09 L 425.485 194.09 C 449.751 194.09 469.339 199.329 469.339 205.817 Z" style=""/>
    <path fill="#3f3f3f" d="M 470.314 205.817 L 470.314 260.804 C 470.314 262.992 463.883 264.713 455.696 264.713 L 250.068 264.713 L 250.068 194.09 L 426.459 194.09 C 450.726 194.09 470.314 199.329 470.314 205.817 Z" style=""/>
    <path fill="#d3d3d3" d="M 498.576 279.33 L 498.576 384.094 L 483.958 411.868 L 410.868 484.958 L 383.092 499.576 L 116.07 499.576 L 88.294 484.958 L 15.204 411.868 L 0.586 384.094 L 0.586 279.33 C 0.586 255.063 20.174 235.476 44.441 235.476 L 454.721 235.476 C 478.988 235.476 498.576 255.063 498.576 279.33 Z" style=""/>
    <path fill="#bababa" d="M 499.551 279.33 L 499.551 384.094 L 484.932 411.868 L 411.841 484.958 L 384.067 499.576 L 250.068 499.576 L 250.068 235.476 L 455.696 235.476 C 479.963 235.476 499.551 255.063 499.551 279.33 Z" style=""/>
    <polygon fill="#d3d3d3" points="440.103 235.476 440.103 293.948 410.868 323.184 88.294 323.184 59.058 293.948 59.058 235.476" style=""/>
    <polygon fill="#bababa" points="441.078 235.476 441.078 293.948 411.841 323.184 250.068 323.184 250.068 235.476" style=""/>
    <rect x="59.058" y="293.948" fill="#A66342" width="381.045" height="205.628" style=""/>
    <rect x="250.068" y="293.948" fill="#995B3D" width="191.01" height="205.628" style=""/>
    <path fill="#6f6f6f" d="M 15.204 382.631 C 10.199 382.631 5.402 383.411 0.586 384.109 L 0.586 455.721 C 0.586 479.941 20.221 499.576 44.441 499.576 L 116.053 499.576 C 116.751 494.76 117.531 489.963 117.531 484.958 C 117.531 428.541 71.621 382.631 15.204 382.631 Z" style=""/>
    <path fill="#3f3f3f" d="M 484.932 382.631 C 428.516 382.631 382.606 428.541 382.606 484.958 C 382.606 489.963 383.384 494.76 384.082 499.576 L 455.696 499.576 C 479.916 499.576 499.551 479.941 499.551 455.721 L 499.551 384.109 C 494.735 383.411 489.938 382.631 484.932 382.631 Z" style=""/>
    <path fill="#6f6f6f" d="M 176.978 235.476 L 176.978 304.181 C 176.978 342.479 204.459 378.245 242.467 382.338 C 245.099 382.631 247.435 382.631 250.068 382.631 C 290.121 382.631 323.159 348.911 323.159 308.565 L 323.159 235.475 L 176.978 235.475 L 176.978 235.476 Z" style=""/>
    <path fill="#3f3f3f" d="M 323.159 235.476 L 323.159 308.566 C 323.159 348.913 290.121 382.631 250.068 382.631 L 250.068 235.476 L 323.159 235.476 Z" style=""/>
    <path fill="#0d0d0d" d="M 250.068 293.948 C 241.88 293.948 235.157 300.671 235.157 308.566 C 235.157 316.752 241.88 323.476 250.068 323.476 C 257.963 323.476 264.686 316.752 264.686 308.566 C 264.686 300.671 257.963 293.948 250.068 293.948 Z" style=""/>
    <path fill="#0d0d0d" d="M 264.686 308.566 C 264.686 316.752 257.963 323.476 250.068 323.476 L 250.068 293.948 C 257.963 293.948 264.686 300.671 264.686 308.566 Z" style=""/>
</svg>
