<svg viewBox="43 37 445 445" xmlns="http://www.w3.org/2000/svg">
    <path d="m168.73 149.45 18.195 28.893-1.0112 0.63679c-64.173 48.754-95.294 129.59-80.365 208.78 1.1504 6.8412-1.9477 13.695-7.8403 17.345l-7.2231 4.5486c-11.969 7.537-27.779 3.9457-35.317-8.0237-7.537-11.969-3.9457-27.779 8.0237-35.317 1.5437-0.99221 3.2066-1.7971 4.9414-2.4051-5.3614-82.955 31.45-163.03 97.904-212.97"
          fill="#A66342"/>
    <path d="m197.62 131.26 18.195 28.893 1.0112-0.63679c71.696-36.808 158.04-29.947 223.01 17.737 5.6725 3.9935 13.192 4.1611 19.03 0.4237l7.2231-4.5486c11.969-7.537 15.561-23.347 8.0237-35.317-7.537-11.969-23.347-15.561-35.317-8.0237-1.5618 0.96344-3.0062 2.1153-4.3041 3.4171-72.495-40.679-160.62-42.081-234.37-3.7284"
          fill="#A66342"/>
    <path d="m102.25 412.33-7.2231 4.5486c-16.069 9.8677-37.1 4.8424-46.968-11.228-9.8677-16.069-4.8424-37.1 11.228-46.968-3.5926-84.038 34.62-164.42 102.07-214.68l5.1266 6.8592 9.4621-5.9586 22.425 35.61-7.4105 5.3733c-61.438 46.769-91.358 124.11-77.389 200.05 1.9778 10.285-2.5025 20.743-11.32 26.396zm-34.515-38.791c-7.9813 5.0261-10.375 15.562-5.3489 23.543 5.0261 7.9813 15.562 10.375 23.543 5.3489l7.2231-4.5486c2.8816-1.7839 4.4311-5.0901 3.9616-8.4461-14.775-80.043 15.303-161.76 78.441-213.12l-9.0973-14.446c-61.23 48.334-94.797 123.66-89.79 201.5l0.37524 6.5222-5.9369 2.4269c-1.1741 0.26549-2.3006 0.67233-3.3709 1.2152z"
          fill="#0d0d0d"/>
    <path d="m470.64 180.35-7.2231 4.5486c-8.7654 5.56-20.022 5.2744-28.496-0.71739-62.432-45.653-145.25-52.262-214.12-17.08l-7.975 4.3154-22.425-35.61 9.4621-5.9586-3.9707-7.5871c74.473-39.11 163.48-38.839 237.71 0.71229 15.842-10.228 36.979-5.674 47.209 10.169 10.229 15.843 5.6737 36.98-10.169 47.209zm-251.74-31.321c73.61-34.794 160.34-26.626 226.16 21.301 2.8236 1.8735 6.4748 1.9047 9.3287 0.0768l7.2231-4.5486c7.9813-5.0261 10.375-15.562 5.349-23.543-5.0261-7.9813-15.562-10.375-23.543-5.349-1.0554 0.50274-2.0522 1.1305-2.9617 1.8651l-4.5264 4.6668-5.7198-3.1566c-68.064-38.081-150.5-40.29-220.5-5.9012l9.1887 14.59z"
          fill="#0d0d0d"/>
    <path d="m228.93 293.12 21.67-13.646 90.338 143.45c3.0525 3.6462 2.5604 9.0802-1.0852 12.134-3.6462 3.0525-9.0802 2.5604-12.134-1.0852l-46.879-42.405-54.585-86.68c-2.5157-3.9949-1.3128-9.2608 2.6745-11.772z"
          fill="#995B3D"/>
    <path d="m312.94 250.3 54.585 86.679 17.986 60.599c1.9694 4.3283 0.0643 9.442-4.264 11.411-4.3283 1.9694-9.442 0.0643-11.411-4.264l-90.337-143.45 21.67-13.646c3.9873-2.5109 9.256-1.3204 11.772 2.6745z"
          fill="#995B3D"/>
    <path d="m342.82 441.92c-6.4307 3.9492-14.698 3.2028-20.32-1.8306l-46.924-42.477c-0.71943-0.40491-1.3783-0.90703-1.9509-1.4954l-54.585-86.68c-5.0261-7.9813-2.6324-18.517 5.3489-23.543l21.67-13.646c3.9873-2.5109 9.2608-1.3128 11.772 2.6745l90.338 143.45c4.6387 7.2066 3.2166 16.737-3.3265 22.27zm-55.385-55.912 46.287 41.465-85.789-136.23-14.446 9.0973z"
          fill="#0d0d0d"/>
    <path d="m386.16 414.63-2.1671 1.3647c-7.8167 3.5103-17.027 0.67519-21.521-6.6225l-90.338-143.45c-2.5109-3.9873-1.3128-9.2608 2.6745-11.772l21.67-13.646c7.9813-5.0261 18.517-2.6324 23.543 5.3489l54.585 86.679c0.49556 0.59553 0.90534 1.2462 1.2283 1.9505l17.986 60.599c2.2325 7.5011-0.92362 15.562-7.6611 19.553zm-94.887-150.68 85.789 136.23-17.395-59.66-53.948-85.668z"
          fill="#0d0d0d"/>
    <path d="m199.73 94.721-6.6596 29.312 204.69 325.05c2.5109 3.9873 1.3128 9.2608-2.6745 11.772l-14.446 9.0973c-3.9873 2.5109-9.2608 1.3128-11.772-2.6745l-204.69-325.05-29.312-6.6596c-3.5284-0.81397-6.1564-3.7691-6.5579-7.37l-8.1868-74.033c-0.21833-4.7042 3.4256-8.7042 8.1307-8.9231 1.5389-0.07095 3.0807 0.27934 4.4378 1.0083l63.228 39.372c3.073 1.9186 4.6034 5.5649 3.812 9.0992z"
          fill="#bababa"/>
    <path d="m196.71 108.02-3.6373 16.01 204.69 325.05c2.5109 3.9873 1.3128 9.2608-2.6745 11.772l-14.446 9.0973c-3.9873 2.5109-9.2608 1.3128-11.772-2.6745l-204.69-325.05-16.01-3.6373-5.3035-48.309c-0.21833-4.7042 3.4256-8.7042 8.1307-8.9231 1.5389-0.07095 3.0807 0.27934 4.4378 1.0083z"
          fill="#d3d3d3"/>
    <path d="m399.64 468.07-14.446 9.0973c-7.9813 5.0261-18.517 2.6324-23.543-5.349l-202.83-322.09-25.78-5.8572c-7.0961-1.6245-12.386-7.5737-13.162-14.813l-8.2595-73.987c-0.6865-9.4035 6.3897-17.582 15.798-18.261 3.3857-0.24597 6.7644 0.52165 9.7004 2.2039l63.6 39.642c6.1931 3.8275 9.2727 11.169 7.6716 18.27l-6.2294 25.51 202.83 322.08c5.021 7.9751 2.6253 18.523-5.3493 23.545zm-271.05-414.4 8.2217 73.608 29.312 6.6596c2.1823 0.50235 4.08 1.8493 5.2791 3.7366l204.69 325.05 14.446-9.0973-204.69-325.05c-1.2246-1.9126-1.6259-4.2314-1.1354-6.4476l6.6596-29.312z"
          fill="#0d0d0d"/>
    <path d="m105.21 399.9 148.15-51.138" stroke="#0d0d0d" stroke-width="15"/>
    <path d="m341.68 292.32 108.64-108.73" stroke="#0d0d0d" stroke-width="15"/>
</svg>
