<svg xmlns="http://www.w3.org/2000/svg" viewBox="0 0 512 512.00009">
    <g fill="#A66342">
        <path d="m82.496094 462h40v-118.167969c-17.757813 3.910157-32.125 6.867188-40 8.089844zm0 0"/>
        <path d="m182.496094 462h39.996094v-141.464844c-12.902344 3.121094-26.496094 6.367188-39.996094 9.550782zm0 0"/>
        <path d="m453.1875 250.578125-144.949219-23.476563-7.136719 39.804688 139.320313 21.582031zm0 0"/>
        <path d="m485.164062 327.835938c-7.804687-21.335938-15.179687-41.492188-15.179687-61.835938 0-11.042969-8.953125-20-19.996094-20-11.046875 0-20 8.957031-20 20 0 3.480469.148438 6.910156.414063 10.300781l-112.050782 112.054688 28.28125 28.285156 94.171876-94.171875c2.171874 6.453125 4.492187 12.8125 6.792968 19.109375 7.398438 20.226563 14.386719 39.328125 14.386719 57.421875 0 32.492188-34.1875 61.457031-34.996094 62 .183594-.125 8 3 8 3l28.546875 14.992188c1.570313-.972657 38.449219-24.503907 38.449219-79.988282 0-25.183594-8.550781-48.5625-16.820313-71.167968zm0 0"/>
        <path d="m332.488281 462h43l-79.933593-159.875c-6.183594 1.78125-20.085938 5.363281-38.082032 9.839844zm0 0"/>
    </g>
    <path d="m485.984375 462h-459.984375l10 40h439.984375zm0 0" fill="#995B3D"/>
    <path d="m442.699219 10-100.75 174.503906c-9.074219 27.367188 2.328125 57.347656 27.296875 71.761719l52.375 30.242187.019531-.03125c21.320313 11.40625 47.992187 3.914063 60.171875-17.179687 12.175781-21.09375 5.328125-47.9375-15.210938-60.699219l30.019532-51.996094c11.042968-19.128906 4.488281-43.59375-14.640625-54.640624l-5 8.660156c11.042969-19.132813 4.488281-43.59375-14.640625-54.640625l-5 8.660156c11.042968-19.128906 4.488281-43.59375-14.640625-54.640625zm0 0"
          fill="#deebff"/>
    <path d="m494.554688 324.402344h-.007813l.007813-.003906c-4.941407-13.511719-9.683594-26.523438-12.347657-39.148438 3.125-3.222656 5.910157-6.878906 8.265625-10.953125 13.265625-22.980469 8.285156-51.285156-10.792968-68.355469l25.597656-44.335937c6.679687-11.566407 8.453125-25.042969 4.996094-37.941407-2.933594-10.945312-9.332032-20.367187-18.269532-27.050781.753906-6.253906.308594-12.660156-1.371094-18.929687-2.933593-10.957032-9.34375-20.382813-18.292968-27.070313 2.289062-19.265625-6.804688-38.972656-24.644532-49.273437-4.78125-2.757813-10.898437-1.121094-13.660156 3.660156l-100.742187 174.503906c-.339844.589844-.617188 1.210938-.832031 1.851563-4.320313 13.03125-4.605469 26.632812-1.441407 39.304687l-21.183593-3.429687c-5.390626-.875-10.480469 2.734375-11.441407 8.105469l-11.375 68.769531c-7.113281 1.902343-149.136719 36.105469-166.566406 39.941406-.035156.007813-32.316406 6.878906-39.492187 7.992187-.003907 0-.320313.050782-.460938.074219-14.605469 2.210938-35.640625 7.59375-52.910156 20.660157-18.050782 13.664062-27.589844 32.757812-27.589844 55.226562 0 29.148438 11.210938 43.816406 17.0625 49.484375l9.234375 36.941406c1.113281 4.453125 5.113281 7.574219 9.703125 7.574219h439.984375c4.589844 0 8.589844-3.121094 9.703125-7.574219l10-40c.445312-1.785156.375-3.628906-.148438-5.34375 8.832032-14.164062 16.445313-33.941406 16.445313-60.082031 0-26.949219-8.859375-51.171875-17.429687-74.597656zm-143.410157-135.820313 94.359375-163.4375c8.011719 9.386719 9.691406 23.1875 3.171875 34.496094 0 0-69.980469 121.210937-69.996093 121.242187-10.875 18.835938-4.160157 43.773438 14.636718 54.648438 0 0 11.128906 6.421875 11.140625 6.429688 4.71875 2.722656 10.941407 1.046874 13.660157-3.660157 2.699218-4.671875 1-10.988281-3.660157-13.660156 0 0-11.132812-6.433594-11.140625-6.441406-9.414062-5.441407-12.757812-17.898438-7.320312-27.308594l69.148437-119.777344c2.875 3.359375 4.992188 7.347657 6.171875 11.746094 2.074219 7.738281 1.007813 15.824219-3 22.761719l-49.496094 85.738281c-2.761718 4.78125-1.125 10.898437 3.660157 13.660156 4.726562 2.730469 10.933593 1.0625 13.660156-3.660156l48.644531-84.261719c2.878906 3.359375 4.992188 7.34375 6.167969 11.742188 2.074219 7.738281 1.011719 15.824218-2.996094 22.761718l-30.015625 51.996094c-2.699218 4.671875-1.203125 10.644532 3.382813 13.492188 16.125 10.023437 21.320312 30.757812 11.824219 47.207031-9.496094 16.449219-30.046876 22.316406-46.792969 13.359375-.160157-.085938-52.109375-30.050781-52.109375-30.050781-20.476563-11.824219-30.089844-36.515625-23.101563-59.023438zm-34.800781 49.960938 24.195312 3.921875c5.90625 9.03125 13.910157 16.804687 23.707032 22.460937l3.882812 2.242188-55.378906-8.578125zm-6.867188 39.777343 90.710938 14.054688-65.550781 65.554688-28.414063-56.828126zm-19.199218 35.613282 69.03125 138.066406h-20.636719l-66.683594-133.363281c7.3125-1.84375 13.488281-3.433594 18.289063-4.703125zm-57.785156 14.441406c6.832031-1.660156 13.40625-3.273438 19.605468-4.804688l64.210938 128.429688h-83.816406zm-40 9.625c6.625-1.570312 13.308593-3.164062 20-4.769531v118.769531h-20zm-59.996094 13.855469c12.382812-2.765625 26.011718-5.898438 40-9.164063v109.308594h-40zm-40 8.460937c.101562-.019531 13.449218-2.679687 20-4.078125v95.761719h-20zm-62.578125 91.683594c-3.371094-3.816406-9.917969-13.832031-9.917969-34 0-35.152344 31.160156-48.757812 52.496094-53.945312v87.945312zm438.261719 40h-424.375l-5-20h434.375zm-105.261719-77.5 73.738281-73.742188c.5 1.378907 1.019531 2.792969 1.554688 4.257813 7.085937 19.367187 13.777343 37.664063 13.777343 53.984375 0 24.503906-24.082031 47.765625-29.878906 53h-40.4375zm113.535156 37.5h-26.839844c10.660157-12.917969 22.371094-31.914062 22.371094-53 0-19.867188-7.28125-39.777344-14.996094-60.859375-2.109375-5.769531-4.503906-12.308594-6.707031-18.863281-2.316406-6.886719-11.417969-9.011719-16.546875-3.882813l-80.246094 80.246094-9.425781-18.855469 78.777344-78.777344c6.570312 2.589844 13.386718 3.859376 20.125 3.859376 7.441406 0 14.78125-1.527344 21.574218-4.445313 2.957032 11.175781 7.027344 22.347656 11.234376 33.851563 7.96875 21.789062 16.210937 44.320312 16.210937 67.726562 0 24.160156-7.5625 41.46875-15.53125 53zm0 0"
          fill="#0d0d0d"/>
    <path d="m439.105469 261.960938c4.707031 2.71875 10.949219 1.035156 13.660156-3.660157 2.75-4.78125 1.113281-10.910156-3.660156-13.660156-4.621094-2.664063-10.910157-1.113281-13.65625 3.660156-2.730469 4.738281-1.070313 10.925781 3.65625 13.660157zm0 0"
          fill="#0d0d0d"/>
</svg>
