<svg viewBox="0 0 64 64" xmlns="http://www.w3.org/2000/svg">
    <path d="m22 4.2v9.8h-9.32l-.5-.08c.18-1.03.48-2 .9-2.92 1.63-3.55 4.94-6.16 8.91-6.83z" fill="#999999"/>
    <path d="m35.82 13.92-.5.08h-9.32v-9.8l.01-.03c3.96.66 7.27 3.27 8.89 6.81h.01c.42.92.73 1.91.91 2.94z"
          fill="#999999"/>

    <path d="m22 14v4h-6-4v-2c0-.71.06-1.41.18-2.08l.5.08z" fill="#bababa"/>
    <path d="m36 16v2h-4-6v-4h9.32l.5-.08c.12.67.18 1.37.18 2.08z" fill="#bababa"/>

    <path d="m26.01 4.17-.01.03v9.8 4h-4v-4-9.8l-.01-.03c.65-.11 1.32-.17 2.01-.17s1.36.06 2.01.17z" fill="#F9BC35"/>
    <path d="m22 50v-6c-1.65-.33-3.03-1.29-3.92-2.6l-.01-.01c1.19-1.08 1.93-2.65 1.93-4.39v-1c0 1.1.45 2.1 1.17 2.83.73.72 1.73 1.17 2.83 1.17 2.21 0 4-1.79 4-4v1c0 1.74.74 3.3 1.92 4.4-.89 1.31-2.27 2.27-3.92 2.6v4.04c-.77.1-1.5.46-2.06 1.02l-.94.94z"
          fill="#F9BC35"/>

    <path d="m24 62h-12v-6h4 4 4.47l-2.3 3.2c-.44 1.01.02 2.19 1.02 2.63.26.11.53.17.81.17z" fill="#999999"/>
    <path d="m36 56v6h-12c.79 0 1.51-.47 1.83-1.2l3.23-4.8h.94z" fill="#999999"/>
    <path d="m29.92 41.4c.58.53 1.26.95 2.01 1.23l-3.35 6.03c-.6-.43-1.33-.66-2.08-.66-.17 0-.33.01-.5.04v-4.04c1.65-.33 3.03-1.29 3.92-2.6z"
          fill="#999999"/>
    <path d="m42 43c.67 1.85 1 5.01 1 6.98v.9c0 1.36-.54 2.66-1.5 3.62s-2.26 1.5-3.62 1.5h-1.88-6c.83 0 1.58-.34 2.12-.88s.88-1.29.88-2.12-.34-1.58-.88-2.12c-.05-.05-.1-.09-.15-.14l.75-1.35 3.55-6.39h.01z"
          fill="#999999"/>
    <path d="m16 49.45-5-.45 2.22-6h.78c1.58 0 3.01-.6 4.07-1.61l.01.01c.89 1.31 2.27 2.27 3.92 2.6v6l-1.98-.18z"
          fill="#999999"/>
    <path d="m11 49 5 .45v6.55h-4-1.88c-1.36 0-2.66-.54-3.62-1.5s-1.5-2.26-1.5-3.62v-.9c0-1.97.33-5.13 1-6.98h7.22z"
          fill="#999999"/>
    <path d="m20.02 49.82-.02.18v6h-4v-6.55z" fill="#bababa"/>

    <path d="m20 36v1c0 1.74-0.74 3.31-1.93 4.39-1.06 1.01-2.49 1.61-4.07 1.61h-8c0-1.46 0.39-2.83 1.07-4h4.93c2.21 0 4-1.79 4-4h4z"
          fill="#F39E31"/>
    <path d="m34.19 38.57-2.26 4.06c-.75-.28-1.43-.7-2.01-1.23-1.18-1.1-1.92-2.66-1.92-4.4v-1-1h4c0 1.56.89 2.91 2.19 3.57z"
          fill="#F39E31"/>
    <path d="m39.5 37.19c1.54 1.45 2.5 3.53 2.5 5.81h-5.73z" fill="#F39E31"/>
    <path d="m36.03 35.26-1.84 3.31c-1.3-.66-2.19-2.01-2.19-3.57h2c.7 0 1.38.09 2.03.26z" fill="#F9BC35"/>
    <path d="m14 35h2c0 2.21-1.79 4-4 4h-4.92c.98-1.71 2.57-3.01 4.48-3.62.77-.25 1.59-.38 2.44-.38z" fill="#F9BC35"/>

    <path d="m55.86 31h4.14c0 8.44-6.54 15.44-14.97 16h-.03v-2.4c0-.64-.04-1.27-.11-1.9 5.71-1.2 10.13-5.87 10.97-11.7z"
          fill="#e6e6e6"/>
    <path d="m54.36 31h1.5c-.84 5.83-5.26 10.5-10.97 11.7-.36-3.19-1.64-6.19-3.64-8.65l3.41-6.15c2.83 2.02 6.22 3.1 9.7 3.1z"
          fill="#d3d3d3"/>

    <path d="m29.06 56-3.23 4.8c-.32.73-1.04 1.2-1.83 1.2-.28 0-.55-.06-.81-.17-1-.44-1.46-1.62-1.02-2.63l2.3-3.2z"
          fill="#A66342"/>
    <path d="m39.5 37.19-3.23 5.81-3.55 6.39-.75 1.35c-.52-.46-1.21-.74-1.97-.74l-.94-.94c-.15-.15-.31-.28-.48-.4l3.35-6.03 2.26-4.06 1.84-3.31 1.97-3.56 4.17-7.5c.32-.73 1.04-1.2 1.83-1.2.28 0 .55.06.8.17 1.01.44 1.47 1.62 1.03 2.63l-1.17 2.1-3.41 6.15z"
          fill="#A66342"/>

    <path d="m20 50 .02-.18 1.98.18h1l.94-.94c.56-.56 1.29-.92 2.06-1.02.17-.03.33-.04.5-.04.75 0 1.48.23 2.08.66.17.12.33.25.48.4l.94.94c.76 0 1.45.28 1.97.74.05.05.1.09.15.14.54.54.88 1.29.88 2.12s-.34 1.58-.88 2.12-1.29.88-2.12.88h-.94-4.59-4.47z"
          fill="#f0d0b4"/>
    <path d="m20 35 .46-1.83 3.54.83c1.27 0 2.47-.3 3.54-.83l.46 1.83v1c0 2.21-1.79 4-4 4-1.1 0-2.1-.45-2.83-1.17-.72-.73-1.17-1.73-1.17-2.83z"
          fill="#f0d0b4"/>
    <path d="m32 18v8c0 2.19-.88 4.17-2.3 5.61l-.99-3.44c-.37-1.28-1.54-2.17-2.88-2.17h-3.66c-1.34 0-2.51.89-2.88 2.17l-.99 3.44c-1.42-1.44-2.3-3.42-2.3-5.61v-8h6 4z"
          fill="#f0d0b4"/>

    <path d="m18.34 31.66 2.12 1.51-.46 1.83h-4-2c-.85 0-1.67.13-2.44.38.26-.35.44-.77.44-1.37 0-2-2-2-2-4s2-2 2-4-2-2-2-4.01c0-2 2-2 2-4h4v8c0 2.19.88 4.17 2.3 5.61.01.02.02.03.04.05z"
          fill="#995B3D"/>
    <path d="m32 35h-4l-.46-1.83c.81-.39 1.54-.93 2.16-1.56 1.42-1.44 2.3-3.42 2.3-5.61v-8h4c0 2 2 2 2 4 0 2.01-2 2.01-2 4.01s2 2 2 4v1.69l-1.97 3.56c-.65-.17-1.33-.26-2.03-.26z"
          fill="#995B3D"/>
    <path d="m18.3 31.61.99-3.44c.37-1.28 1.54-2.17 2.88-2.17h3.66c1.34 0 2.51.89 2.88 2.17l.99 3.44c-.62.63-1.35 1.17-2.16 1.56-1.07.53-2.27.83-3.54.83l-3.54-.83-2.12-1.51c-.02-.02-.03-.03-.04-.05z"
          fill="#995B3D"/>

    <path d="m54.356 30.001c-2.987 0-5.86-0.841-8.37-2.425l0.762-1.372c0.321-0.733 0.337-1.548 0.046-2.294-0.292-0.747-0.855-1.335-1.587-1.655-0.385-0.17-0.791-0.255-1.207-0.255-1.192 0-2.271 0.707-2.706 1.714l-2.653 4.776c-0.265-0.511-0.629-0.884-0.934-1.188-0.49-0.49-0.707-0.731-0.707-1.292 0-0.563 0.217-0.805 0.708-1.296 0.545-0.546 1.292-1.294 1.292-2.709s-0.747-2.163-1.292-2.709c-0.491-0.491-0.708-0.733-0.708-1.296v-1c0-4.4999-3.0127-13.993-13-14-9.2542 0-12.803 8.9479-12.763 13.921l-0.23735 1.0791c-0.12094 0.54986-0.217 0.805-0.708 1.296-0.545 0.546-1.292 1.294-1.292 2.709s0.747 2.163 1.292 2.709c0.491 0.491 0.708 0.732 0.708 1.296 0 0.562-0.217 0.802-0.707 1.292-0.546 0.545-1.293 1.292-1.293 2.706s0.747 2.161 1.293 2.707c0.49 0.49 0.707 0.73 0.707 1.291 0 0.248-0.049 0.421-0.116 0.562-3.376 1.252-5.8 4.465-5.875 8.253-0.661 1.929-1.009 5.026-1.009 7.157v0.902c0 1.635 0.637 3.172 1.793 4.329 1.157 1.155 2.693 1.791 4.327 1.791h0.88v6.001h26v-6.001h0.88c1.634 0 3.17-0.636 4.327-1.792 1.156-1.157 1.793-2.694 1.793-4.329v-0.902c0-2.131-0.348-5.229-1.009-7.158-0.044-2.137-0.848-4.195-2.256-5.787l0.629-1.132c1.705 2.568 2.636 5.605 2.636 8.704v2.397l0.033 1.066 1.066-0.071c8.917-0.594 15.901-8.059 15.901-16.995v-1zm-11.271-5.401c0.213-0.491 0.813-0.736 1.318-0.514 0.243 0.106 0.43 0.302 0.527 0.551 0.098 0.25 0.092 0.521 0.027 0.68l-13.353 24.036c-0.366-0.161-0.753-0.283-1.165-0.328l-0.591-0.59zm-18.17 35.802c-0.215 0.495-0.825 0.734-1.318 0.514-0.243-0.106-0.43-0.302-0.527-0.551-0.087-0.222-0.092-0.461-0.018-0.683l1.929-2.682h2.198l-2.177 3.244zm4.143-5.402h-8.058v-4.09l1 0.091h1.414l1.232-1.232c0.975-0.976 2.732-0.976 3.707 0l1.232 1.232h0.415c1.103 0 2 0.897 2 2 0 1.101-0.895 1.997-1.995 1.999zm-21.375-15h4.317c2.414 0 4.434-1.721 4.899-4h2.101v1c0 2.757-2.243 5-5 5h-6.929c0.102-0.707 0.315-1.377 0.612-2zm1.431-2c1.263-1.234 2.985-2 4.886-2h0.816c-0.414 1.161-1.514 2-2.816 2zm3.886-22c0-0.338 0.021-0.67 0.051-1h7.949v2h-8zm4 3h14v7c0 1.24-0.327 2.403-0.895 3.414l-0.433-1.515c-0.489-1.707-2.07-2.899-3.845-2.899h-3.654c-1.774 0-3.355 1.192-3.845 2.899l-0.433 1.514c-0.568-1.01-0.895-2.173-0.895-3.413zm10-4h7.949c0.03 0.33 0.051 0.662 0.051 1v1h-8zm-6.75 13.45c0.245-0.854 1.036-1.45 1.923-1.45h3.654c0.887 0 1.678 0.596 1.923 1.449l0.814 2.846c-1.227 1.06-2.82 1.705-4.564 1.705s-3.337-0.645-4.564-1.705zm13.61 8.646c-0.306-0.312-0.537-0.684-0.682-1.096h0.822c0.152 0 0.301 0.019 0.452 0.029zm-2.748-1.096c0.231 1.14 0.848 2.154 1.755 2.884l-1.359 2.446c-1.526-0.883-2.508-2.53-2.508-4.33v-1zm-2.937 11.327c-0.376-0.147-0.772-0.231-1.175-0.276v-2.279c1.192-0.383 2.245-1.071 3.088-1.991 0.148 0.101 0.291 0.208 0.448 0.297zm-5.979-4.307c-1.089-0.218-2.048-0.778-2.79-1.579 0.459-0.558 0.829-1.191 1.099-1.874 0.903 0.884 2.135 1.433 3.495 1.433 1.366 0 2.604-0.553 3.508-1.445 0.269 0.679 0.639 1.307 1.099 1.869-0.743 0.81-1.707 1.376-2.803 1.595l-0.804 0.161v4.093c-0.659 0.228-1.271 0.584-1.768 1.081l-0.232 0.233v-5.407zm1.804-8.02c0.997 0 1.954-0.17 2.852-0.471l0.148 0.594v0.877c0 1.654-1.346 3-3 3s-3-1.346-3-3v-0.878l0.148-0.593c0.898 0.301 1.855 0.471 2.852 0.471zm-10 9c1.453 0 2.803-0.445 3.923-1.206 0.841 0.914 1.891 1.597 3.077 1.978v4.134l-8.61-0.779 1.528-4.127zm5 6.729v4.271h-2v-4.452zm17.292-27.428c-0.545 0.546-1.292 1.294-1.292 2.709 0 1.414 0.747 2.161 1.293 2.706 0.49 0.49 0.707 0.73 0.707 1.292v1.435l-1.499 2.698c-0.495-0.084-0.995-0.141-1.501-0.141h-5.22l-0.084-0.337c2.577-1.585 4.304-4.422 4.304-7.663v-7h2.145c0.243 0.798 0.748 1.309 1.147 1.709 0.491 0.491 0.708 0.732 0.708 1.296s-0.217 0.805-0.708 1.296zm-1.718-10.301h-7.574v-7.574c3.655 1.039 6.535 3.919 7.574 7.574zm-9.574-7.949v11.949h-2v-11.949c0.33-0.03 0.662-0.051 1-0.051s0.67 0.021 1 0.051zm-4 0.375v7.574h-7.574c1.039-3.655 3.919-6.535 7.574-7.574zm-9.293 25.873c-0.49-0.489-0.707-0.73-0.707-1.291s0.217-0.802 0.707-1.292c0.546-0.546 1.293-1.292 1.293-2.706 0-1.415-0.747-2.163-1.292-2.709-0.491-0.491-0.708-0.733-0.708-1.296s0.217-0.805 0.708-1.296c0.399-0.4 0.903-0.911 1.147-1.709h2.145v7c0 3.241 1.727 6.078 4.304 7.663l-0.084 0.337h-5.22c-0.34 0-0.674 0.023-1.004 0.06 0-0.019 4e-3 -0.036 4e-3 -0.054 0-1.414-0.747-2.161-1.293-2.707zm-4.5 22.495c-0.778-0.779-1.207-1.814-1.207-2.915v-0.902c0-1.728 0.255-4.252 0.733-5.977h5.053l-1.482 4.001h-2.304v2l2.909-4e-3 4.091 0.37v4.633h-4.88c-1.099 0-2.135-0.429-2.913-1.206zm5.793 3.206h9.518l-1.161 1.615-0.104 0.183c-0.308 0.704-0.327 1.481-0.072 2.203h-8.181zm22 4.001h-8.097l2.684-4h0.413c2e-3 0 4e-3 -1e-3 5e-3 -1e-3h4.995zm7-10.122c0 1.101-0.429 2.136-1.207 2.914s-1.814 1.207-2.913 1.207h-4.436c0.344-0.59 0.556-1.268 0.556-1.999 0-0.897-0.31-1.717-0.81-2.385l0.155-0.279 3.655-0.336h3v-2l-3.091 4e-3 -2.39 0.217 2.345-4.222h4.403c0.478 1.725 0.733 4.249 0.733 5.978zm-1.072-8.879h-2.953l1.703-3.066c0.649 0.909 1.088 1.957 1.25 3.066zm1.506-8.029 2.579-4.643c2.808 1.747 6.013 2.673 9.343 2.673h0.29c-1.067 4.506-4.491 8.138-8.935 9.46-0.489-2.708-1.616-5.277-3.277-7.49zm3.566 11.923v-1.291c0-0.381-0.025-0.76-0.049-1.139 5.438-1.483 9.615-5.941 10.74-11.464h2.276c-0.472 7.083-5.91 12.917-12.967 13.894z"
          fill="#0d0d0d"/>

    <circle cx="20.159" cy="22.247" r=".8951"/>
    <circle cx="27.767" cy="22.247" r=".8951"/>
    <path d="m22.1 29.419c1.3711 1.5754 2.617 1.2657 3.7996 0" fill="none" stroke="#0d0d0d" stroke-linecap="round"
          stroke-width="1"/>
</svg>
