<svg xmlns="http://www.w3.org/2000/svg" xmlns:xlink="http://www.w3.org/1999/xlink" viewBox="0 0 64 64"
     aria-labelledby="title" role="img" width="256" height="256">
    <title>Destination Map</title>
    <path fill="#deebff" d="M62 10v50l-22-6-16 6-22-6V4l22 6 16-6 22 6z"/>
    <path fill="#3f7fea" d="M2 4v50l22 6V10L2 4zm38 0v50l22 6V10L40 4z" opacity=".2"/>
    <path fill="none" stroke="#001236" stroke-linecap="butt" stroke-linejoin="round" stroke-width="2"
          d="M62 10v50l-22-6-16 6-22-6V4l22 6 16-6 22 6zm-18.9 7l9.9 9.9M43 27l9.9-9.9m-19.4 7.6a10 10 0 0 1 6.7-2.7"/>
    <path d="M29.7 35.2a10 10 0 0 0 .5-2.9V32a10 10 0 0 1 .9-4.3M21.2 42a10 10 0 0 0 6.6-3.5M9.8 42h7.6M2 42h4"
          fill="none" stroke="#001236" stroke-linecap="butt" stroke-linejoin="round" stroke-width="2"/>
</svg>
